<?xml version="1.0" encoding="iso-8859-1"?>
<!-- Generator: Adobe Illustrator 19.0.0, SVG Export Plug-In . SVG Version: 6.00 Build 0)  -->
<svg version="1.1" id="Capa_1" xmlns="http://www.w3.org/2000/svg" xmlns:xlink="http://www.w3.org/1999/xlink" x="0px" y="0px"
	 viewBox="0 0 488 488" style="enable-background:new 0 0 488 488;" xml:space="preserve">
<path style="fill:#EF9F35;" d="M84,416l160,72l160-72V248l-160,72L84,248V416z"/>
<path style="fill:#F7D04F;" d="M300,400l160-80l-56-72l-160,72L300,400z"/>
<g>
	<path style="fill:#F9F6ED;" d="M230.64,182L244,192l-32-24L230.64,182z"/>
	<path style="fill:#F9F6ED;" d="M257.36,182L276,168l-32,24L257.36,182z"/>
</g>
<path style="fill:#F7D04F;" d="M28,320l160,80l56-80L84,248L28,320z"/>
<path style="fill:#5A5A60;" d="M244,176L84,248l160,72l160-72L244,176z"/>
<g>
	<path style="fill:#F7D04F;" d="M316,120l-72,56l160,72l72-56L316,120z"/>
	<path style="fill:#F7D04F;" d="M172,120l72,56L84,248l-72-56L172,120z"/>
</g>
<path style="fill:#63C8CD;" d="M156,184l56-16L244,8l32,160l56,16l-26.64-55.68L244,0l-61.36,128.32L156,184z"/>
<g>
	<path style="fill:#F9F6ED;" d="M182.64,128.32L156,184L182.64,128.32z"/>
	<path style="fill:#F9F6ED;" d="M332,184l-26.64-55.68L332,184z"/>
</g>
<path style="fill:#1895AA;" d="M212,168l32,24l32-24L244,0L212,168z"/>
<g>
	<path style="fill:#F9F6ED;" d="M236,216h16v32h-16V216z"/>
	<path style="fill:#F9F6ED;" d="M236,264h16v16h-16V264z"/>
	<path style="fill:#F9F6ED;" d="M276,216h16v40h-16V216z"/>
	<path style="fill:#F9F6ED;" d="M196,216h16v40h-16V216z"/>
</g>
<g>
</g>
<g>
</g>
<g>
</g>
<g>
</g>
<g>
</g>
<g>
</g>
<g>
</g>
<g>
</g>
<g>
</g>
<g>
</g>
<g>
</g>
<g>
</g>
<g>
</g>
<g>
</g>
<g>
</g>
</svg>
