<?xml version="1.0" encoding="iso-8859-1"?>
<!-- Generator: Adobe Illustrator 19.0.0, SVG Export Plug-In . SVG Version: 6.00 Build 0)  -->
<svg version="1.1" id="Capa_1" xmlns="http://www.w3.org/2000/svg" xmlns:xlink="http://www.w3.org/1999/xlink" x="0px" y="0px"
	 viewBox="0 0 480 480" style="enable-background:new 0 0 480 480;" xml:space="preserve">
<g>
	<path style="fill:#63C8CD;" d="M216,240v-48c0-26.51-21.49-48-48-48H56c-26.51,0-48,21.49-48,48v112h48v176h112V256
		c0,17.673,14.327,32,32,32h64v-48H216z"/>
	<circle style="fill:#63C8CD;" cx="112" cy="88" r="56"/>
</g>
<path style="fill:#F7D04F;" d="M264,0v240v48v192h32V152V0H264z"/>
<path style="fill:#E05B69;" d="M296,152l176-72L296,0V152z"/>
<path style="fill:#EF9F35;" d="M136,144h-24H88l24,64L136,144z"/>
<path style="fill:#5A5A60;" d="M104,232h16v16h-16V232z"/>
<g>
</g>
<g>
</g>
<g>
</g>
<g>
</g>
<g>
</g>
<g>
</g>
<g>
</g>
<g>
</g>
<g>
</g>
<g>
</g>
<g>
</g>
<g>
</g>
<g>
</g>
<g>
</g>
<g>
</g>
</svg>
