<?xml version="1.0" encoding="iso-8859-1"?>
<!-- Generator: Adobe Illustrator 19.0.0, SVG Export Plug-In . SVG Version: 6.00 Build 0)  -->
<svg version="1.1" id="Capa_1" xmlns="http://www.w3.org/2000/svg" xmlns:xlink="http://www.w3.org/1999/xlink" x="0px" y="0px"
	 viewBox="0 0 480 480" style="enable-background:new 0 0 480 480;" xml:space="preserve">
<g>
	<circle style="fill:#63C8CD;" cx="240" cy="232" r="40"/>
	<path style="fill:#63C8CD;" d="M128,272h-16c0,22.091,17.909,40,40,40h48v64l-16,104h40l16-104l16,104h40l-16-104v-64h48
		c22.091,0,40-17.909,40-40H128z"/>
</g>
<g>
	<circle style="fill:#F7D04F;" cx="72" cy="32" r="32"/>
	<path style="fill:#F7D04F;" d="M128,120c0-30.928-25.072-56-56-56s-56,25.072-56,56v24h112V120z"/>
</g>
<g>
	<circle style="fill:#1895AA;" cx="184" cy="32" r="32"/>
	<path style="fill:#1895AA;" d="M184,144h56v-24c0-30.928-25.072-56-56-56s-56,25.072-56,56v24H184z"/>
</g>
<g>
	<circle style="fill:#EF9F35;" cx="296" cy="32" r="32"/>
	<path style="fill:#EF9F35;" d="M296,144h56v-24c0-30.928-25.072-56-56-56s-56,25.072-56,56v24H296z"/>
</g>
<g>
	<circle style="fill:#63C8CD;" cx="408" cy="32" r="32"/>
	<path style="fill:#63C8CD;" d="M416,144h48v-24c0-30.928-25.072-56-56-56s-56,25.072-56,56v24H416z"/>
</g>
<g>
	<path style="fill:#5A5A60;" d="M132.96,272h-18.24L64,153.6V144h16v6.4l44.24,103.2L176,150.08V144h16v9.92L132.96,272z"/>
	<path style="fill:#5A5A60;" d="M364.96,272h-17.92L288,153.92V144h16v6.08l52,104l52-104V144h16v9.92L364.96,272z"/>
</g>
<g>
</g>
<g>
</g>
<g>
</g>
<g>
</g>
<g>
</g>
<g>
</g>
<g>
</g>
<g>
</g>
<g>
</g>
<g>
</g>
<g>
</g>
<g>
</g>
<g>
</g>
<g>
</g>
<g>
</g>
</svg>
